<?xml version="1.0" encoding="UTF-8" standalone="no"?>
<!DOCTYPE svg PUBLIC "-//W3C//DTD SVG 1.1//EN"
 "http://www.w3.org/Graphics/SVG/1.1/DTD/svg11.dtd">
<!-- Generated by graphviz version 2.42.4 (0)
 -->
<!-- Title: G Pages: 1 -->
<svg width="1038pt" height="566pt"
 viewBox="0.00 0.00 1038.00 566.00" xmlns="http://www.w3.org/2000/svg" xmlns:xlink="http://www.w3.org/1999/xlink">
<g id="graph0" class="graph" transform="scale(1 1) rotate(0) translate(4 562)">
<title>G</title>
<polygon fill="white" stroke="transparent" points="-4,4 -4,-562 1034,-562 1034,4 -4,4"/>
<g id="clust1" class="cluster">
<title>cluster_root</title>
<g id="a_clust1"><a xlink:title="eventq_index=0&#10;full_system=false&#10;sim_quantum=0&#10;time_sync_enable=false&#10;time_sync_period=100000000000&#10;time_sync_spin_threshold=100000000">
<path fill="#bab6ae" stroke="#000000" d="M20,-8C20,-8 1010,-8 1010,-8 1016,-8 1022,-14 1022,-20 1022,-20 1022,-538 1022,-538 1022,-544 1016,-550 1010,-550 1010,-550 20,-550 20,-550 14,-550 8,-544 8,-538 8,-538 8,-20 8,-20 8,-14 14,-8 20,-8"/>
<text text-anchor="middle" x="515" y="-534.8" font-family="Arial" font-size="14.00" fill="#000000">root </text>
<text text-anchor="middle" x="515" y="-519.8" font-family="Arial" font-size="14.00" fill="#000000">: Root</text>
</a>
</g>
</g>
<g id="clust2" class="cluster">
<title>cluster_system</title>
<g id="a_clust2"><a xlink:title="auto_unlink_shared_backstore=false&#10;cache_line_size=64&#10;eventq_index=0&#10;exit_on_work_items=false&#10;external_memory_ranges=&#10;init_param=0&#10;m5ops_base=0&#10;mem_mode=timing&#10;mem_ranges=0:8589934592&#10;memories=system.mem_ctrls.dram&#10;mmap_using_noreserve=false&#10;multi_thread=false&#10;&#10;um_work_ids=16&#10;&#13;eadfile=&#10;&#13;edirect_paths=system.redirect_paths0 system.redirect_paths1 system.redirect_paths2&#10;shadow_rom_ranges=&#10;shared_backstore=&#10;symbolfile=&#10;thermal_components=&#10;thermal_model=Null&#10;work_begin_ckpt_count=0&#10;work_begin_cpu_id_exit=&#45;1&#10;work_begin_exit_count=0&#10;work_cpus_ckpt_count=0&#10;work_end_ckpt_count=0&#10;work_end_exit_count=0&#10;work_item_id=&#45;1&#10;workload=system.workload">
<path fill="#e4e7eb" stroke="#000000" d="M28,-16C28,-16 1002,-16 1002,-16 1008,-16 1014,-22 1014,-28 1014,-28 1014,-492 1014,-492 1014,-498 1008,-504 1002,-504 1002,-504 28,-504 28,-504 22,-504 16,-498 16,-492 16,-492 16,-28 16,-28 16,-22 22,-16 28,-16"/>
<text text-anchor="middle" x="515" y="-488.8" font-family="Arial" font-size="14.00" fill="#000000">system </text>
<text text-anchor="middle" x="515" y="-473.8" font-family="Arial" font-size="14.00" fill="#000000">: System</text>
</a>
</g>
</g>
<g id="clust4" class="cluster">
<title>cluster_system_cpu</title>
<g id="a_clust4"><a xlink:title="branchPred=Null&#10;checker=Null&#10;clk_domain=system.cpu_clk_domain&#10;cpu_id=0&#10;decoder=system.cpu.decoder&#10;do_checkpoint_insts=true&#10;do_statistics_insts=true&#10;eventq_index=0&#10;function_trace=false&#10;function_trace_start=0&#10;interrupts=system.cpu.interrupts&#10;isa=system.cpu.isa&#10;max_insts_all_threads=0&#10;max_insts_any_thread=0&#10;mmu=system.cpu.mmu&#10;&#10;umThreads=1&#10;power_gating_on_idle=false&#10;power_model=&#10;power_state=system.cpu.power_state&#10;progress_interval=0&#10;pwr_gating_latency=300&#10;simpoint_start_insts=&#10;socket_id=0&#10;switched_out=false&#10;syscallRetryLatency=10000&#10;system=system&#10;tracer=system.cpu.tracer&#10;workload=system.cpu.workload">
<path fill="#bbc6d9" stroke="#000000" d="M36,-24C36,-24 902,-24 902,-24 908,-24 914,-30 914,-36 914,-36 914,-264 914,-264 914,-270 908,-276 902,-276 902,-276 36,-276 36,-276 30,-276 24,-270 24,-264 24,-264 24,-36 24,-36 24,-30 30,-24 36,-24"/>
<text text-anchor="middle" x="469" y="-260.8" font-family="Arial" font-size="14.00" fill="#000000">cpu </text>
<text text-anchor="middle" x="469" y="-245.8" font-family="Arial" font-size="14.00" fill="#000000">: X86TimingSimpleCPU</text>
</a>
</g>
</g>
<g id="clust5" class="cluster">
<title>cluster_system_cpu_mmu</title>
<g id="a_clust5"><a xlink:title="dtb=system.cpu.mmu.dtb&#10;eventq_index=0&#10;itb=system.cpu.mmu.itb">
<path fill="#bab6ae" stroke="#000000" d="M560,-32C560,-32 894,-32 894,-32 900,-32 906,-38 906,-44 906,-44 906,-218 906,-218 906,-224 900,-230 894,-230 894,-230 560,-230 560,-230 554,-230 548,-224 548,-218 548,-218 548,-44 548,-44 548,-38 554,-32 560,-32"/>
<text text-anchor="middle" x="727" y="-214.8" font-family="Arial" font-size="14.00" fill="#000000">mmu </text>
<text text-anchor="middle" x="727" y="-199.8" font-family="Arial" font-size="14.00" fill="#000000">: X86MMU</text>
</a>
</g>
</g>
<g id="clust6" class="cluster">
<title>cluster_system_cpu_mmu_itb</title>
<g id="a_clust6"><a xlink:title="entry_type=instruction&#10;eventq_index=0&#10;&#10;ext_level=Null&#10;size=64&#10;system=system&#10;walker=system.cpu.mmu.itb.walker">
<path fill="#9f9c95" stroke="#000000" d="M743,-40C743,-40 886,-40 886,-40 892,-40 898,-46 898,-52 898,-52 898,-172 898,-172 898,-178 892,-184 886,-184 886,-184 743,-184 743,-184 737,-184 731,-178 731,-172 731,-172 731,-52 731,-52 731,-46 737,-40 743,-40"/>
<text text-anchor="middle" x="814.5" y="-168.8" font-family="Arial" font-size="14.00" fill="#000000">itb </text>
<text text-anchor="middle" x="814.5" y="-153.8" font-family="Arial" font-size="14.00" fill="#000000">: X86TLB</text>
</a>
</g>
</g>
<g id="clust7" class="cluster">
<title>cluster_system_cpu_mmu_itb_walker</title>
<g id="a_clust7"><a xlink:title="clk_domain=system.cpu_clk_domain&#10;eventq_index=0&#10;&#10;um_squash_per_cycle=4&#10;power_model=&#10;power_state=system.cpu.mmu.itb.walker.power_state&#10;system=system">
<path fill="#84827c" stroke="#000000" d="M751,-48C751,-48 878,-48 878,-48 884,-48 890,-54 890,-60 890,-60 890,-126 890,-126 890,-132 884,-138 878,-138 878,-138 751,-138 751,-138 745,-138 739,-132 739,-126 739,-126 739,-60 739,-60 739,-54 745,-48 751,-48"/>
<text text-anchor="middle" x="814.5" y="-122.8" font-family="Arial" font-size="14.00" fill="#000000">walker </text>
<text text-anchor="middle" x="814.5" y="-107.8" font-family="Arial" font-size="14.00" fill="#000000">: X86PagetableWalker</text>
</a>
</g>
</g>
<g id="clust9" class="cluster">
<title>cluster_system_cpu_mmu_dtb</title>
<g id="a_clust9"><a xlink:title="entry_type=data&#10;eventq_index=0&#10;&#10;ext_level=Null&#10;size=64&#10;system=system&#10;walker=system.cpu.mmu.dtb.walker">
<path fill="#9f9c95" stroke="#000000" d="M568,-40C568,-40 711,-40 711,-40 717,-40 723,-46 723,-52 723,-52 723,-172 723,-172 723,-178 717,-184 711,-184 711,-184 568,-184 568,-184 562,-184 556,-178 556,-172 556,-172 556,-52 556,-52 556,-46 562,-40 568,-40"/>
<text text-anchor="middle" x="639.5" y="-168.8" font-family="Arial" font-size="14.00" fill="#000000">dtb </text>
<text text-anchor="middle" x="639.5" y="-153.8" font-family="Arial" font-size="14.00" fill="#000000">: X86TLB</text>
</a>
</g>
</g>
<g id="clust10" class="cluster">
<title>cluster_system_cpu_mmu_dtb_walker</title>
<g id="a_clust10"><a xlink:title="clk_domain=system.cpu_clk_domain&#10;eventq_index=0&#10;&#10;um_squash_per_cycle=4&#10;power_model=&#10;power_state=system.cpu.mmu.dtb.walker.power_state&#10;system=system">
<path fill="#84827c" stroke="#000000" d="M576,-48C576,-48 703,-48 703,-48 709,-48 715,-54 715,-60 715,-60 715,-126 715,-126 715,-132 709,-138 703,-138 703,-138 576,-138 576,-138 570,-138 564,-132 564,-126 564,-126 564,-60 564,-60 564,-54 570,-48 576,-48"/>
<text text-anchor="middle" x="639.5" y="-122.8" font-family="Arial" font-size="14.00" fill="#000000">walker </text>
<text text-anchor="middle" x="639.5" y="-107.8" font-family="Arial" font-size="14.00" fill="#000000">: X86PagetableWalker</text>
</a>
</g>
</g>
<g id="clust18" class="cluster">
<title>cluster_system_cpu_interrupts</title>
<g id="a_clust18"><a xlink:title="clk_domain=system.cpu.interrupts.clk_domain&#10;eventq_index=0&#10;int_latency=1000&#10;pio_latency=100000&#10;system=system">
<path fill="#bab6ae" stroke="#000000" d="M250,-48C250,-48 528,-48 528,-48 534,-48 540,-54 540,-60 540,-60 540,-126 540,-126 540,-132 534,-138 528,-138 528,-138 250,-138 250,-138 244,-138 238,-132 238,-126 238,-126 238,-60 238,-60 238,-54 244,-48 250,-48"/>
<text text-anchor="middle" x="389" y="-122.8" font-family="Arial" font-size="14.00" fill="#000000">interrupts </text>
<text text-anchor="middle" x="389" y="-107.8" font-family="Arial" font-size="14.00" fill="#000000">: X86LocalApic</text>
</a>
</g>
</g>
<g id="clust24" class="cluster">
<title>cluster_system_membus</title>
<g id="a_clust24"><a xlink:title="clk_domain=system.clk_domain&#10;eventq_index=0&#10;forward_latency=4&#10;frontend_latency=3&#10;header_latency=1&#10;max_outstanding_snoops=512&#10;max_routing_table_size=512&#10;point_of_coherency=true&#10;point_of_unification=true&#10;power_model=&#10;power_state=system.membus.power_state&#10;&#13;esponse_latency=2&#10;snoop_filter=system.membus.snoop_filter&#10;snoop_response_latency=4&#10;system=system&#10;use_default_range=false&#10;width=16">
<path fill="#6f798c" stroke="#000000" d="M272,-284C272,-284 508,-284 508,-284 514,-284 520,-290 520,-296 520,-296 520,-362 520,-362 520,-368 514,-374 508,-374 508,-374 272,-374 272,-374 266,-374 260,-368 260,-362 260,-362 260,-296 260,-296 260,-290 266,-284 272,-284"/>
<text text-anchor="middle" x="390" y="-358.8" font-family="Arial" font-size="14.00" fill="#000000">membus </text>
<text text-anchor="middle" x="390" y="-343.8" font-family="Arial" font-size="14.00" fill="#000000">: SystemXBar</text>
</a>
</g>
</g>
<g id="clust27" class="cluster">
<title>cluster_system_mem_ctrls</title>
<g id="a_clust27"><a xlink:title="clk_domain=system.clk_domain&#10;command_window=10000&#10;disable_sanity_check=false&#10;dram=system.mem_ctrls.dram&#10;eventq_index=0&#10;mem_sched_policy=frfcfs&#10;min_reads_per_switch=16&#10;min_writes_per_switch=16&#10;power_model=&#10;power_state=system.mem_ctrls.power_state&#10;qos_policy=Null&#10;qos_priorities=1&#10;qos_priority_escalation=false&#10;qos_q_policy=fifo&#10;qos_requestors= &#160;&#160;&#160;&#160;&#160;&#160;&#160;&#160;&#160;&#160;&#160;&#160;&#160;&#160;&#10;qos_syncro_scheduler=false&#10;qos_turnaround_policy=Null&#10;static_backend_latency=10000&#10;static_frontend_latency=10000&#10;system=system&#10;write_high_thresh_perc=85&#10;write_low_thresh_perc=50">
<path fill="#bab6ae" stroke="#000000" d="M934,-48C934,-48 994,-48 994,-48 1000,-48 1006,-54 1006,-60 1006,-60 1006,-126 1006,-126 1006,-132 1000,-138 994,-138 994,-138 934,-138 934,-138 928,-138 922,-132 922,-126 922,-126 922,-60 922,-60 922,-54 928,-48 934,-48"/>
<text text-anchor="middle" x="964" y="-122.8" font-family="Arial" font-size="14.00" fill="#000000">mem_ctrls </text>
<text text-anchor="middle" x="964" y="-107.8" font-family="Arial" font-size="14.00" fill="#000000">: MemCtrl</text>
</a>
</g>
</g>
<!-- system_system_port -->
<g id="node1" class="node">
<title>system_system_port</title>
<path fill="#b6b8bc" stroke="#000000" d="M355.5,-458C355.5,-458 288.5,-458 288.5,-458 282.5,-458 276.5,-452 276.5,-446 276.5,-446 276.5,-434 276.5,-434 276.5,-428 282.5,-422 288.5,-422 288.5,-422 355.5,-422 355.5,-422 361.5,-422 367.5,-428 367.5,-434 367.5,-434 367.5,-446 367.5,-446 367.5,-452 361.5,-458 355.5,-458"/>
<text text-anchor="middle" x="322" y="-436.3" font-family="Arial" font-size="14.00" fill="#000000">system_port</text>
</g>
<!-- system_membus_cpu_side_ports -->
<g id="node9" class="node">
<title>system_membus_cpu_side_ports</title>
<path fill="#586070" stroke="#000000" d="M364,-328C364,-328 280,-328 280,-328 274,-328 268,-322 268,-316 268,-316 268,-304 268,-304 268,-298 274,-292 280,-292 280,-292 364,-292 364,-292 370,-292 376,-298 376,-304 376,-304 376,-316 376,-316 376,-322 370,-328 364,-328"/>
<text text-anchor="middle" x="322" y="-306.3" font-family="Arial" font-size="14.00" fill="#000000">cpu_side_ports</text>
</g>
<!-- system_system_port&#45;&gt;system_membus_cpu_side_ports -->
<g id="edge1" class="edge">
<title>system_system_port&#45;&gt;system_membus_cpu_side_ports</title>
<path fill="none" stroke="black" d="M322,-421.74C322,-400.36 322,-363.69 322,-338.44"/>
<polygon fill="black" stroke="black" points="325.5,-338.4 322,-328.4 318.5,-338.4 325.5,-338.4"/>
</g>
<!-- system_cpu_icache_port -->
<g id="node2" class="node">
<title>system_cpu_icache_port</title>
<path fill="#959ead" stroke="#000000" d="M216,-92C216,-92 154,-92 154,-92 148,-92 142,-86 142,-80 142,-80 142,-68 142,-68 142,-62 148,-56 154,-56 154,-56 216,-56 216,-56 222,-56 228,-62 228,-68 228,-68 228,-80 228,-80 228,-86 222,-92 216,-92"/>
<text text-anchor="middle" x="185" y="-70.3" font-family="Arial" font-size="14.00" fill="#000000">icache_port</text>
</g>
<!-- system_cpu_dcache_port -->
<g id="node3" class="node">
<title>system_cpu_dcache_port</title>
<path fill="#959ead" stroke="#000000" d="M111.5,-92C111.5,-92 44.5,-92 44.5,-92 38.5,-92 32.5,-86 32.5,-80 32.5,-80 32.5,-68 32.5,-68 32.5,-62 38.5,-56 44.5,-56 44.5,-56 111.5,-56 111.5,-56 117.5,-56 123.5,-62 123.5,-68 123.5,-68 123.5,-80 123.5,-80 123.5,-86 117.5,-92 111.5,-92"/>
<text text-anchor="middle" x="78" y="-70.3" font-family="Arial" font-size="14.00" fill="#000000">dcache_port</text>
</g>
<!-- system_cpu_mmu_itb_walker_port -->
<g id="node4" class="node">
<title>system_cpu_mmu_itb_walker_port</title>
<path fill="#6a6863" stroke="#000000" d="M789,-92C789,-92 759,-92 759,-92 753,-92 747,-86 747,-80 747,-80 747,-68 747,-68 747,-62 753,-56 759,-56 759,-56 789,-56 789,-56 795,-56 801,-62 801,-68 801,-68 801,-80 801,-80 801,-86 795,-92 789,-92"/>
<text text-anchor="middle" x="774" y="-70.3" font-family="Arial" font-size="14.00" fill="#000000">port</text>
</g>
<!-- system_cpu_mmu_dtb_walker_port -->
<g id="node5" class="node">
<title>system_cpu_mmu_dtb_walker_port</title>
<path fill="#6a6863" stroke="#000000" d="M614,-92C614,-92 584,-92 584,-92 578,-92 572,-86 572,-80 572,-80 572,-68 572,-68 572,-62 578,-56 584,-56 584,-56 614,-56 614,-56 620,-56 626,-62 626,-68 626,-68 626,-80 626,-80 626,-86 620,-92 614,-92"/>
<text text-anchor="middle" x="599" y="-70.3" font-family="Arial" font-size="14.00" fill="#000000">port</text>
</g>
<!-- system_cpu_interrupts_int_requestor -->
<g id="node6" class="node">
<title>system_cpu_interrupts_int_requestor</title>
<path fill="#94918b" stroke="#000000" d="M329.5,-92C329.5,-92 258.5,-92 258.5,-92 252.5,-92 246.5,-86 246.5,-80 246.5,-80 246.5,-68 246.5,-68 246.5,-62 252.5,-56 258.5,-56 258.5,-56 329.5,-56 329.5,-56 335.5,-56 341.5,-62 341.5,-68 341.5,-68 341.5,-80 341.5,-80 341.5,-86 335.5,-92 329.5,-92"/>
<text text-anchor="middle" x="294" y="-70.3" font-family="Arial" font-size="14.00" fill="#000000">int_requestor</text>
</g>
<!-- system_cpu_interrupts_int_responder -->
<g id="node7" class="node">
<title>system_cpu_interrupts_int_responder</title>
<path fill="#94918b" stroke="#000000" d="M519.5,-92C519.5,-92 444.5,-92 444.5,-92 438.5,-92 432.5,-86 432.5,-80 432.5,-80 432.5,-68 432.5,-68 432.5,-62 438.5,-56 444.5,-56 444.5,-56 519.5,-56 519.5,-56 525.5,-56 531.5,-62 531.5,-68 531.5,-68 531.5,-80 531.5,-80 531.5,-86 525.5,-92 519.5,-92"/>
<text text-anchor="middle" x="482" y="-70.3" font-family="Arial" font-size="14.00" fill="#000000">int_responder</text>
</g>
<!-- system_cpu_interrupts_pio -->
<g id="node8" class="node">
<title>system_cpu_interrupts_pio</title>
<path fill="#94918b" stroke="#000000" d="M402,-92C402,-92 372,-92 372,-92 366,-92 360,-86 360,-80 360,-80 360,-68 360,-68 360,-62 366,-56 372,-56 372,-56 402,-56 402,-56 408,-56 414,-62 414,-68 414,-68 414,-80 414,-80 414,-86 408,-92 402,-92"/>
<text text-anchor="middle" x="387" y="-70.3" font-family="Arial" font-size="14.00" fill="#000000">pio</text>
</g>
<!-- system_membus_cpu_side_ports&#45;&gt;system_cpu_icache_port -->
<g id="edge2" class="edge">
<title>system_membus_cpu_side_ports&#45;&gt;system_cpu_icache_port</title>
<path fill="none" stroke="black" d="M258.33,-293.8C249.2,-289.31 240.66,-283.51 234,-276 186.45,-222.39 183.25,-130.27 184.16,-92.22"/>
<polygon fill="black" stroke="black" points="257.04,-297.06 267.61,-297.86 259.85,-290.64 257.04,-297.06"/>
</g>
<!-- system_membus_cpu_side_ports&#45;&gt;system_cpu_dcache_port -->
<g id="edge3" class="edge">
<title>system_membus_cpu_side_ports&#45;&gt;system_cpu_dcache_port</title>
<path fill="none" stroke="black" d="M257.52,-305.05C210.14,-300.83 151.02,-292.39 133,-276 79.22,-227.06 75.98,-131.06 77.08,-92.07"/>
<polygon fill="black" stroke="black" points="257.48,-308.55 267.74,-305.91 258.07,-301.58 257.48,-308.55"/>
</g>
<!-- system_membus_cpu_side_ports&#45;&gt;system_cpu_mmu_itb_walker_port -->
<g id="edge4" class="edge">
<title>system_membus_cpu_side_ports&#45;&gt;system_cpu_mmu_itb_walker_port</title>
<path fill="none" stroke="black" d="M368.4,-288.48C373.91,-286.68 379.52,-285.12 385,-284 403.19,-280.3 704.38,-287.44 719,-276 776.56,-230.97 777.53,-131.86 775.37,-92.05"/>
<polygon fill="black" stroke="black" points="366.89,-285.3 358.64,-291.95 369.24,-291.9 366.89,-285.3"/>
</g>
<!-- system_membus_cpu_side_ports&#45;&gt;system_cpu_mmu_dtb_walker_port -->
<g id="edge5" class="edge">
<title>system_membus_cpu_side_ports&#45;&gt;system_cpu_mmu_dtb_walker_port</title>
<path fill="none" stroke="black" d="M368.65,-288.55C374.08,-286.75 379.61,-285.17 385,-284 402.29,-280.24 530.21,-287.08 544,-276 600.82,-230.33 602.27,-132.03 600.31,-92.24"/>
<polygon fill="black" stroke="black" points="367.25,-285.33 359.01,-291.99 369.61,-291.93 367.25,-285.33"/>
</g>
<!-- system_membus_cpu_side_ports&#45;&gt;system_cpu_interrupts_int_requestor -->
<g id="edge6" class="edge">
<title>system_membus_cpu_side_ports&#45;&gt;system_cpu_interrupts_int_requestor</title>
<path fill="none" stroke="black" d="M318.73,-281.68C312.9,-232.98 300.88,-132.49 296.06,-92.23"/>
<polygon fill="black" stroke="black" points="315.28,-282.28 319.94,-291.79 322.23,-281.45 315.28,-282.28"/>
</g>
<!-- system_membus_mem_side_ports -->
<g id="node10" class="node">
<title>system_membus_mem_side_ports</title>
<path fill="#586070" stroke="#000000" d="M500,-328C500,-328 406,-328 406,-328 400,-328 394,-322 394,-316 394,-316 394,-304 394,-304 394,-298 400,-292 406,-292 406,-292 500,-292 500,-292 506,-292 512,-298 512,-304 512,-304 512,-316 512,-316 512,-322 506,-328 500,-328"/>
<text text-anchor="middle" x="453" y="-306.3" font-family="Arial" font-size="14.00" fill="#000000">mem_side_ports</text>
</g>
<!-- system_membus_mem_side_ports&#45;&gt;system_cpu_interrupts_int_responder -->
<g id="edge8" class="edge">
<title>system_membus_mem_side_ports&#45;&gt;system_cpu_interrupts_int_responder</title>
<path fill="none" stroke="black" d="M455.13,-291.79C460.12,-251.56 472.57,-151.08 478.61,-102.35"/>
<polygon fill="black" stroke="black" points="482.11,-102.59 479.86,-92.23 475.16,-101.73 482.11,-102.59"/>
</g>
<!-- system_membus_mem_side_ports&#45;&gt;system_cpu_interrupts_pio -->
<g id="edge7" class="edge">
<title>system_membus_mem_side_ports&#45;&gt;system_cpu_interrupts_pio</title>
<path fill="none" stroke="black" d="M434.8,-291.79C430.68,-287.04 426.73,-281.63 424,-276 396.06,-218.39 389.13,-142.12 387.47,-102.13"/>
<polygon fill="black" stroke="black" points="390.96,-101.96 387.13,-92.09 383.97,-102.2 390.96,-101.96"/>
</g>
<!-- system_mem_ctrls_port -->
<g id="node11" class="node">
<title>system_mem_ctrls_port</title>
<path fill="#94918b" stroke="#000000" d="M972,-92C972,-92 942,-92 942,-92 936,-92 930,-86 930,-80 930,-80 930,-68 930,-68 930,-62 936,-56 942,-56 942,-56 972,-56 972,-56 978,-56 984,-62 984,-68 984,-68 984,-80 984,-80 984,-86 978,-92 972,-92"/>
<text text-anchor="middle" x="957" y="-70.3" font-family="Arial" font-size="14.00" fill="#000000">port</text>
</g>
<!-- system_membus_mem_side_ports&#45;&gt;system_mem_ctrls_port -->
<g id="edge9" class="edge">
<title>system_membus_mem_side_ports&#45;&gt;system_mem_ctrls_port</title>
<path fill="none" stroke="black" d="M512.06,-308.22C625.39,-306.2 864.76,-299.21 894,-276 947.32,-233.68 956.41,-146.63 957.4,-102.27"/>
<polygon fill="black" stroke="black" points="960.9,-102.26 957.5,-92.22 953.9,-102.19 960.9,-102.26"/>
</g>
</g>
</svg>
